<?xml version="1.0" standalone="no"?>
<!DOCTYPE svg PUBLIC "-//W3C//DTD SVG 20010904//EN"
 "http://www.w3.org/TR/2001/REC-SVG-20010904/DTD/svg10.dtd">
<svg version="1.0" xmlns="http://www.w3.org/2000/svg"
 width="300.000000pt" height="299.000000pt" viewBox="0 0 300.000000 299.000000"
 preserveAspectRatio="xMidYMid meet">
<metadata>
Created by potrace 1.10, written by Peter Selinger 2001-2011
</metadata>
<g transform="translate(0.000000,299.000000) scale(0.100000,-0.100000)"
fill="#000000" stroke="none">
<path d="M747 2983 c414 -2 1092 -2 1505 0 414 1 76 2 -752 2 -828 0 -1166 -1
-753 -2z"/>
<path d="M5 1485 c0 -820 1 -1153 2 -742 2 412 2 1082 0 1490 -1 408 -2 72 -2
-748z"/>
<path d="M778 2920 c-9 -6 -38 -52 -66 -102 -27 -51 -94 -161 -148 -244 -54
-83 -130 -210 -169 -282 -38 -73 -116 -218 -172 -322 -98 -182 -114 -226 -94
-258 7 -12 73 -39 249 -102 139 -50 340 -45 602 16 145 33 490 136 490 146 0
14 -34 9 -121 -18 -74 -23 -133 -40 -164 -47 -5 -1 -14 -5 -20 -8 -5 -4 -20
-5 -32 -4 -13 1 -23 -3 -23 -8 0 -6 -3 -8 -6 -4 -3 3 -27 -1 -52 -9 -88 -27
-171 -44 -189 -38 -13 4 -15 3 -5 -4 17 -12 -71 -23 -228 -27 -132 -4 -190 5
-276 45 -33 16 -77 32 -98 35 -20 4 -39 11 -42 16 -3 5 -12 9 -21 9 -9 0 -24
7 -34 16 -16 14 -16 19 -2 60 8 24 18 44 23 44 4 0 14 15 21 33 7 17 25 53 40
78 15 26 29 55 31 65 2 11 10 18 16 17 7 -2 11 0 10 5 -4 14 14 52 24 52 6 0
8 3 5 6 -6 6 30 82 44 94 3 3 12 22 18 43 7 20 17 37 22 37 6 0 7 5 4 10 -3 6
-1 10 5 10 7 0 9 7 6 16 -3 8 -2 12 4 9 6 -3 10 3 10 13 0 11 7 23 16 26 8 3
12 10 9 16 -3 5 -3 10 2 10 4 0 17 19 28 43 11 23 23 44 26 47 3 3 14 21 24
40 17 32 62 95 92 128 7 7 16 24 19 38 3 13 10 24 14 24 4 0 13 14 20 30 7 17
16 30 21 30 5 0 8 3 7 8 -4 15 33 86 56 107 14 13 22 26 19 29 -4 3 8 6 26 6
19 0 34 -6 37 -15 4 -8 10 -15 15 -15 9 0 49 -36 49 -44 0 -2 19 -24 43 -48
72 -75 217 -255 217 -270 0 -5 5 -6 10 -3 6 3 10 2 10 -3 0 -17 78 -94 90 -90
15 5 -308 396 -388 471 -52 48 -87 58 -124 37z"/>
<path d="M1944 2883 c-15 -15 -16 -33 -11 -145 l6 -128 -34 0 c-80 0 -277 -33
-358 -60 -148 -50 -232 -117 -255 -203 -24 -88 9 -279 67 -396 51 -100 147
-211 234 -269 20 -13 37 -31 37 -38 0 -43 97 -94 220 -115 85 -14 296 -12 382
5 120 23 208 68 208 105 0 9 30 39 66 66 79 60 152 146 199 236 59 112 97 325
75 410 -14 52 -75 115 -144 148 l-46 23 25 30 c14 16 25 36 25 43 0 38 -138
153 -250 210 -81 41 -149 61 -265 80 -118 19 -160 19 -181 -2z m66 -21 c0 -15
-19 -36 -34 -38 -17 -2 -20 5 -11 28 6 14 45 23 45 10z m205 -67 c95 -25 214
-88 278 -147 l59 -53 -157 -157 c-86 -86 -154 -162 -150 -168 3 -5 22 -10 41
-10 31 0 48 12 139 101 l105 102 44 -17 c24 -9 65 -35 90 -57 39 -34 46 -46
46 -77 0 -30 -8 -44 -53 -88 -63 -60 -163 -104 -317 -137 -137 -30 -459 -30
-606 1 -168 34 -316 103 -357 166 -10 14 -17 42 -17 62 0 89 169 175 400 203
46 6 108 11 137 11 l52 0 3 -96 c3 -110 1 -113 -67 -94 -54 15 -77 39 -73 76
3 26 0 29 -22 26 -30 -3 -70 -39 -70 -63 0 -30 48 -77 98 -96 58 -22 332 -27
353 -6 10 10 5 15 -22 27 -19 7 -53 17 -75 21 l-42 6 -6 67 c-3 37 -8 128 -11
202 -3 74 -8 155 -11 179 l-6 44 79 -6 c43 -3 105 -13 138 -22z m376 -182 c11
-28 -4 -73 -24 -73 -5 0 -4 -7 3 -15 6 -8 9 -19 5 -25 -4 -6 -3 -10 2 -9 19 3
33 -2 33 -11 0 -11 -49 -3 -64 11 -5 5 -24 -1 -43 -12 -20 -13 -33 -16 -33 -9
0 7 9 14 20 17 11 3 20 8 20 12 0 3 16 23 35 45 36 39 43 60 25 71 -13 8 -13
25 0 25 6 0 15 -12 21 -27z m-606 -46 c7 -50 -2 -59 -25 -27 -8 11 -23 20 -34
20 -17 0 -14 5 14 29 19 16 36 28 37 27 1 -1 5 -23 8 -49z m-635 -185 c0 -4
-4 -12 -9 -17 -17 -18 -16 -72 3 -111 14 -28 39 -52 84 -82 36 -23 71 -42 79
-42 7 0 13 -4 13 -10 0 -5 11 -10 25 -10 14 0 25 -3 25 -7 0 -5 12 -9 27 -10
15 0 29 -6 31 -12 2 -6 7 -9 11 -7 4 3 32 -2 62 -10 30 -8 92 -17 139 -21 113
-9 364 -9 420 0 80 13 194 38 215 47 11 5 41 16 68 26 26 9 47 21 47 25 0 5 3
8 8 6 8 -2 98 55 98 63 0 8 38 50 45 50 9 0 18 -37 11 -45 -4 -3 -7 -23 -7
-43 0 -20 -5 -44 -10 -52 -5 -8 -10 -28 -12 -45 -2 -16 -7 -39 -13 -50 -5 -11
-16 -36 -25 -55 -33 -73 -111 -179 -132 -180 -7 0 -13 -6 -13 -13 0 -8 -11
-20 -25 -27 -14 -7 -25 -17 -25 -22 0 -5 -11 -13 -25 -18 -14 -5 -25 -14 -25
-19 0 -5 -9 -13 -20 -16 -11 -4 -20 -12 -19 -18 3 -29 -4 -36 -48 -53 -27 -10
-53 -21 -59 -26 -16 -11 -170 -29 -259 -30 -69 0 -158 6 -170 13 -5 3 -20 4
-32 3 -13 0 -23 1 -23 5 0 3 -12 7 -26 8 -31 1 -75 22 -87 40 -4 7 -15 13 -22
13 -8 0 -15 6 -15 13 0 14 -43 67 -55 67 -4 0 -15 8 -24 18 -9 10 -39 34 -67
55 -47 34 -100 98 -106 129 -2 7 -8 17 -15 23 -22 19 -63 136 -80 230 -12 62
-7 193 7 210 13 16 30 20 30 7z m438 -17 c6 -14 16 -25 22 -25 5 0 10 -4 10
-10 0 -13 -32 -1 -47 18 -15 18 -17 42 -5 42 5 0 14 -11 20 -25z m206 -20 c1
-9 7 -20 12 -23 22 -17 12 -30 -21 -29 -19 1 -35 5 -35 10 0 4 5 7 10 7 6 0
10 3 9 8 -2 12 13 53 18 48 2 -2 6 -12 7 -21z"/>
<path d="M2124 2695 c-25 -18 -11 -65 20 -65 30 0 50 23 41 48 -7 25 -39 34
-61 17z"/>
<path d="M2270 2551 c-13 -25 -4 -48 21 -56 38 -12 65 35 37 63 -18 18 -46 14
-58 -7z"/>
<path d="M2130 2455 c-14 -17 -5 -51 16 -59 22 -8 54 11 54 32 0 38 -46 56
-70 27z"/>
<path d="M1572 2358 c-7 -7 -12 -30 -12 -51 0 -31 7 -46 33 -72 55 -55 205
-85 252 -51 18 13 17 15 -20 21 -99 16 -180 61 -207 114 -23 46 -32 53 -46 39z"/>
<path d="M2485 2290 c-9 -15 -81 -51 -150 -75 -84 -29 -81 -50 6 -49 51 0 75
6 103 24 37 22 76 73 76 98 0 14 -26 16 -35 2z"/>
<path d="M978 2663 c17 -21 52 -61 79 -89 26 -28 38 -39 27 -25 -12 14 -20 32
-19 39 2 7 1 8 -2 2 -5 -10 -93 86 -93 102 0 4 -5 8 -11 8 -6 0 3 -17 19 -37z"/>
<path d="M290 1375 c-84 -28 -130 -89 -130 -171 0 -99 57 -146 227 -184 105
-24 133 -43 133 -90 0 -106 -218 -109 -244 -4 -6 22 -11 24 -71 24 -45 0 -65
-4 -65 -12 0 -30 50 -117 78 -137 72 -51 202 -67 294 -35 156 53 185 256 47
321 -24 11 -79 28 -122 37 -137 28 -176 61 -148 122 15 33 55 47 120 41 44 -3
59 -9 78 -31 13 -15 23 -34 23 -42 0 -11 15 -14 66 -14 l66 0 -7 28 c-13 55
-43 98 -88 126 -39 24 -59 29 -129 32 -57 3 -97 -1 -128 -11z m193 -24 c10 0
15 -5 12 -11 -3 -6 1 -7 9 -4 9 3 16 1 16 -5 0 -6 9 -11 19 -11 11 0 23 -9 26
-20 3 -11 11 -20 16 -20 5 0 9 -11 9 -24 0 -20 -4 -24 -22 -21 -13 3 -34 17
-49 33 -69 76 -219 71 -253 -9 -17 -40 -9 -83 20 -113 25 -24 179 -70 198 -59
5 3 6 1 3 -4 -4 -6 9 -13 31 -17 38 -6 67 -31 91 -78 12 -23 12 -35 1 -75 -13
-47 -66 -112 -93 -114 -6 0 -21 -3 -32 -6 -11 -4 -50 -7 -86 -9 -53 -2 -77 3
-122 23 -32 14 -57 30 -57 35 0 5 -7 16 -15 24 -23 23 -18 44 10 44 15 0 36
-12 52 -31 73 -81 218 -81 266 1 10 15 17 39 17 52 0 24 -31 79 -46 81 -5 0
-14 6 -21 12 -6 7 -47 18 -90 25 -43 7 -83 17 -89 21 -6 5 -13 7 -15 4 -3 -2
-25 13 -49 34 -43 37 -45 41 -44 92 0 69 24 105 87 134 47 22 73 24 200 16z"/>
<path d="M740 1073 l0 -313 65 0 65 0 0 133 0 132 150 0 150 0 0 -132 0 -133
63 0 63 0 0 311 -1 311 -63 1 -62 2 0 -127 0 -128 -150 0 -150 0 0 128 0 127
-65 0 -65 0 0 -312z m510 277 c12 -7 14 -52 16 -267 0 -142 -3 -265 -7 -274
-5 -9 -19 -16 -32 -16 -23 0 -23 2 -24 91 -1 108 -4 136 -16 136 -4 0 -6 4 -2
9 7 13 -6 20 -44 23 -17 1 -31 6 -31 11 0 4 -5 5 -12 1 -7 -4 -55 -9 -108 -10
-52 -1 -103 -2 -112 -3 -30 -2 -40 -40 -40 -148 l0 -104 -31 3 -32 3 -1 190
c-1 105 -3 195 -4 200 -1 6 -1 15 0 20 2 6 3 37 4 70 1 58 2 60 29 61 15 1 27
-2 28 -5 1 -3 2 -50 4 -104 3 -134 2 -133 170 -135 118 -1 183 8 186 27 0 3 3
15 5 26 3 11 5 53 5 94 0 40 6 82 12 92 13 22 16 22 37 9z"/>
<path d="M2531 1375 c-47 -15 -94 -54 -117 -97 -18 -35 -18 -111 0 -146 31
-60 68 -80 211 -112 109 -25 135 -40 135 -79 0 -43 -9 -60 -41 -76 -71 -37
-183 -5 -196 55 -5 30 -6 30 -74 30 l-69 0 6 -27 c13 -57 49 -107 97 -137 42
-26 61 -30 136 -34 74 -4 95 -1 139 18 115 50 159 159 105 263 -18 35 -91 71
-188 91 -90 19 -105 25 -132 49 -58 52 -5 117 94 117 55 0 86 -17 108 -61 15
-27 19 -29 75 -29 42 0 60 4 60 13 -1 25 -39 95 -66 121 -56 52 -187 71 -283
41z m226 -46 c23 -13 51 -36 62 -50 19 -25 19 -25 0 -37 -17 -11 -24 -8 -49
18 -60 61 -135 78 -210 47 -14 -6 -29 -9 -35 -8 -5 2 -7 -1 -3 -5 4 -4 -1 -19
-12 -35 -21 -29 -22 -50 -2 -85 6 -12 9 -24 7 -28 -3 -3 -2 -4 1 -2 3 2 27 -6
52 -18 26 -13 82 -31 125 -41 42 -9 77 -22 77 -27 0 -5 5 -6 10 -3 13 8 73
-52 65 -65 -3 -5 -2 -10 3 -10 11 0 7 -57 -7 -92 -15 -41 -66 -84 -114 -97
-47 -13 -131 -9 -193 8 -42 11 -93 53 -95 77 -1 8 -2 19 -3 26 -1 13 34 20 51
10 6 -4 13 -14 15 -22 5 -21 65 -60 106 -68 39 -8 142 14 142 30 0 5 5 6 10 3
6 -3 10 1 10 9 0 9 5 16 12 16 6 0 8 3 5 7 -4 3 -2 12 3 19 8 8 5 24 -7 53
-21 48 -69 76 -154 90 -80 14 -149 43 -171 72 -26 34 -32 112 -13 150 9 16 19
29 23 29 5 0 19 10 32 23 14 12 25 21 25 19 0 -2 7 -1 15 2 8 2 22 7 30 9 40
13 146 -1 187 -24z"/>
<path d="M1528 1226 c-75 -27 -105 -59 -122 -128 l-6 -28 60 0 c47 0 60 3 60
15 0 53 107 76 148 32 12 -13 22 -35 22 -49 0 -24 -2 -25 -86 -32 -93 -7 -156
-29 -189 -66 -31 -35 -28 -130 5 -165 37 -40 73 -55 130 -55 61 0 111 19 134
51 l16 23 0 -32 0 -32 58 0 57 0 -6 177 c-3 98 -10 190 -16 204 -34 80 -163
121 -265 85z m142 -29 c8 -4 27 -11 41 -16 49 -18 63 -68 64 -235 0 -154 -5
-174 -38 -141 -9 9 -20 16 -24 16 -14 1 -38 18 -26 19 14 0 37 58 33 85 -1 11
-7 26 -12 33 -6 6 -7 12 -2 12 5 1 -2 7 -15 14 l-23 13 25 20 c29 22 34 75 10
94 -7 6 -13 18 -13 25 0 8 -11 16 -25 20 -14 3 -25 11 -25 16 0 6 -13 8 -30 4
-23 -4 -29 -2 -25 7 4 6 0 4 -8 -5 -8 -10 -18 -18 -24 -18 -5 0 -20 -10 -33
-22 -42 -39 -84 -31 -58 12 28 45 149 72 208 47z m-110 -203 c0 -3 -13 -9 -28
-15 -18 -6 -32 -21 -40 -43 -18 -48 -15 -62 17 -98 25 -28 33 -31 80 -30 57 1
61 -12 5 -22 -23 -5 -41 -3 -52 6 -12 10 -14 10 -8 1 9 -17 -4 -16 -45 1 -50
22 -78 79 -64 133 5 23 50 53 95 64 36 9 40 10 40 3z m130 -69 c0 -52 -36 -85
-92 -85 -59 0 -90 23 -86 63 4 41 35 57 116 57 l62 0 0 -35z"/>
<path d="M2044 1230 c-73 -17 -121 -63 -138 -132 l-6 -28 60 0 c47 0 60 3 60
15 0 29 38 55 80 55 48 0 90 -35 90 -75 0 -23 -3 -25 -48 -25 -70 0 -162 -19
-198 -41 -38 -23 -54 -57 -54 -114 0 -78 68 -135 160 -135 80 0 141 35 145 83
1 12 7 35 13 50 7 16 12 36 12 45 0 30 -30 62 -56 62 -14 0 -22 4 -19 10 3 6
13 10 21 10 38 0 59 49 40 94 -30 71 -127 89 -188 34 -35 -31 -53 -35 -62 -13
-3 8 -1 15 5 15 6 0 8 4 4 10 -7 11 34 33 88 48 27 8 37 7 37 -1 0 -8 3 -8 8
-2 18 24 111 0 142 -37 32 -39 32 -40 34 -210 2 -132 1 -147 -15 -151 -10 -3
-27 2 -38 10 -20 13 -21 12 -21 -16 0 -31 0 -31 58 -31 l57 0 -3 157 c-1 87
-7 177 -13 201 -25 92 -135 141 -255 112z m-14 -251 c0 -5 -11 -14 -25 -19
-33 -13 -40 -77 -10 -106 8 -9 15 -19 15 -24 0 -7 46 -22 73 -24 4 -1 7 -5 7
-11 1 -17 -73 -18 -106 0 -44 24 -65 65 -58 112 6 42 21 66 35 57 5 -3 9 0 9
6 0 12 41 30 53 23 4 -2 7 -9 7 -14z m160 -48 c0 -16 -3 -37 -6 -46 -17 -44
-128 -61 -164 -25 -23 23 -24 33 -9 61 15 28 44 38 117 38 l62 1 0 -29z"/>
<path d="M1590 455 c0 -107 1 -115 20 -115 16 0 19 8 22 56 5 104 68 100 68
-3 0 -47 3 -54 18 -51 14 3 16 12 14 58 -2 30 -6 63 -8 72 -7 23 -52 34 -76
19 -16 -10 -18 -7 -18 34 0 38 -3 45 -20 45 -19 0 -20 -7 -20 -115z"/>
<path d="M220 540 c-20 -20 -26 -56 -12 -76 10 -16 48 -34 70 -34 11 0 25 -7
32 -15 17 -20 -3 -45 -37 -45 -13 0 -26 7 -29 15 -8 19 -44 20 -44 2 0 -25 36
-47 77 -47 51 0 76 25 71 72 -3 30 -8 35 -53 50 -41 13 -50 20 -50 40 0 28 35
37 58 14 17 -18 47 -21 47 -6 0 23 -41 50 -75 50 -22 0 -43 -8 -55 -20z"/>
<path d="M1355 539 c-16 -17 -17 -25 -8 -50 10 -26 9 -33 -8 -50 -23 -23 -24
-47 -3 -77 17 -24 70 -30 104 -12 13 7 21 7 25 0 3 -5 18 -10 32 -10 l26 0
-21 23 c-21 22 -22 26 -7 53 20 38 19 44 -5 44 -13 0 -20 -7 -20 -19 0 -29
-15 -33 -35 -10 -18 19 -18 20 3 35 43 30 16 94 -40 94 -14 0 -33 -9 -43 -21z
m69 -24 c4 -12 -17 -45 -29 -45 -9 0 -25 41 -20 50 9 15 42 12 49 -5z m-1
-136 c-16 -16 -57 -7 -61 14 -2 10 2 25 9 33 11 13 16 12 38 -10 18 -19 22
-29 14 -37z"/>
<path d="M392 488 c-15 -15 -16 -38 -2 -38 6 0 19 5 29 12 24 15 51 4 51 -21
0 -14 -5 -18 -20 -14 -53 14 -93 -24 -70 -66 9 -17 20 -20 68 -20 l58 1 -4 67
c-2 36 -9 72 -14 79 -13 15 -80 16 -96 0z m75 -95 c6 -16 -30 -34 -46 -23 -21
12 -5 42 21 38 12 -2 23 -8 25 -15z"/>
<path d="M538 419 c3 -60 7 -79 18 -79 10 0 14 14 14 53 0 60 10 80 36 75 16
-3 20 -14 22 -66 3 -53 6 -62 22 -62 16 0 19 9 22 63 3 59 4 62 28 62 24 0 25
-3 28 -62 2 -52 6 -63 20 -63 16 0 17 8 14 68 -2 37 -9 73 -14 80 -13 15 -60
16 -76 0 -8 -8 -15 -8 -24 -1 -7 6 -35 11 -63 11 l-50 0 3 -79z"/>
<path d="M823 485 c-48 -33 -37 -123 18 -145 62 -26 118 26 104 97 -10 56 -75
81 -122 48z m75 -27 c17 -17 15 -63 -3 -78 -8 -7 -25 -10 -40 -6 -20 5 -25 12
-25 39 0 36 15 57 40 57 9 0 21 -5 28 -12z"/>
<path d="M982 488 c-16 -16 -15 -53 1 -66 6 -6 24 -13 40 -17 15 -4 27 -14 27
-21 0 -22 -29 -28 -49 -10 -23 21 -31 20 -31 -4 0 -44 88 -51 110 -10 17 32 3
56 -40 73 -45 17 -53 37 -15 37 14 0 25 -4 25 -10 0 -5 7 -10 15 -10 8 0 15 6
15 13 0 22 -22 37 -55 37 -17 0 -36 -5 -43 -12z"/>
<path d="M1126 484 c-22 -21 -20 -34 4 -34 11 0 20 5 20 10 0 16 47 11 54 -6
11 -28 6 -32 -32 -27 -45 6 -65 -12 -60 -54 3 -27 5 -28 66 -29 l62 -1 0 62
c0 47 -4 66 -18 78 -23 21 -76 22 -96 1z m71 -90 c5 -14 -11 -34 -27 -34 -3 0
-11 4 -19 9 -19 12 -6 41 19 41 11 0 23 -7 27 -16z"/>
<path d="M1760 463 c0 -67 18 -112 47 -119 14 -4 34 -2 45 5 11 7 18 7 18 1 0
-5 7 -10 15 -10 12 0 15 16 15 80 0 71 -2 80 -18 80 -16 0 -18 -7 -14 -54 4
-48 2 -55 -17 -66 -35 -18 -51 3 -51 66 0 47 -2 54 -20 54 -16 0 -20 -7 -20
-37z"/>
<path d="M1938 419 c3 -60 7 -79 18 -79 10 0 14 14 14 54 0 56 17 83 45 72 11
-4 15 -21 15 -66 0 -53 2 -60 20 -60 16 0 19 8 22 62 2 52 6 63 22 66 26 5 36
-15 36 -75 0 -44 3 -53 18 -53 15 0 17 9 14 67 -2 38 -8 74 -14 81 -13 15 -60
16 -76 0 -8 -8 -15 -8 -24 0 -8 6 -36 11 -63 11 l-50 -1 3 -79z"/>
<path d="M2200 418 c0 -68 2 -78 18 -78 14 0 17 9 17 56 0 64 20 89 50 64 13
-10 16 -27 13 -67 -3 -45 0 -53 15 -53 14 0 17 9 17 54 0 56 17 83 45 72 11
-4 15 -21 15 -66 0 -53 2 -60 20 -60 18 0 20 7 20 58 0 69 -19 102 -59 102
-15 0 -32 -5 -39 -12 -8 -8 -15 -8 -24 0 -7 5 -34 10 -60 10 l-48 -1 0 -79z"/>
<path d="M2460 439 c0 -89 8 -99 80 -98 l60 1 0 79 c0 72 -2 79 -20 79 -16 0
-19 -8 -22 -62 -3 -60 -4 -63 -30 -66 -33 -4 -43 21 -33 84 6 40 4 44 -14 44
-19 0 -21 -6 -21 -61z"/>
<path d="M2642 488 c-16 -16 -15 -53 1 -66 6 -6 24 -13 40 -17 27 -7 36 -28
17 -40 -5 -3 -23 2 -40 11 -34 20 -46 15 -31 -14 21 -40 102 -35 116 7 10 31
-11 59 -51 67 -24 4 -34 11 -32 22 4 22 23 25 41 7 19 -18 37 -20 37 -2 0 22
-22 37 -55 37 -17 0 -36 -5 -43 -12z"/>
<path d="M2770 425 c0 -12 13 -15 55 -15 42 0 55 3 55 15 0 12 -13 15 -55 15
-42 0 -55 -3 -55 -15z"/>
<path d="M1368 245 c-15 -8 -29 -24 -33 -35 -14 -43 12 -70 78 -85 34 -7 46
-33 23 -50 -20 -15 -55 -8 -63 11 -7 18 -43 18 -43 1 0 -36 68 -65 113 -48 68
26 53 98 -25 122 -32 10 -43 19 -43 34 0 25 46 33 65 11 16 -20 40 -21 40 -2
0 18 -47 56 -69 56 -9 -1 -28 -7 -43 -15z"/>
<path d="M1944 245 c-8 -19 12 -36 33 -28 19 7 12 37 -10 41 -9 2 -20 -4 -23
-13z"/>
<path d="M689 181 c-29 -24 -18 -39 15 -21 30 15 56 7 56 -18 0 -15 -6 -17
-34 -14 -28 3 -37 -1 -51 -22 -16 -24 -16 -28 -1 -51 17 -26 59 -34 71 -15 5
8 11 7 21 -1 22 -18 28 -4 25 64 -4 92 -46 124 -102 78z m71 -96 c0 -16 -35
-29 -50 -20 -14 9 -13 32 3 38 20 6 47 -4 47 -18z"/>
<path d="M837 182 c-32 -35 -16 -66 39 -81 15 -4 29 -12 32 -19 6 -18 -28 -27
-49 -14 -37 23 -53 8 -23 -22 38 -39 113 -3 100 48 -5 19 -16 28 -46 36 -22 6
-40 15 -40 21 0 16 29 22 45 9 8 -6 22 -10 32 -8 16 3 16 5 -5 26 -27 27 -63
28 -85 4z"/>
<path d="M1092 184 c-27 -19 -28 -34 -2 -34 11 0 20 5 20 11 0 20 45 5 48 -17
3 -18 -1 -21 -21 -17 -38 8 -67 -13 -67 -48 0 -38 37 -58 75 -41 15 7 25 8 25
2 0 -6 7 -10 15 -10 25 0 21 124 -5 150 -24 24 -57 26 -88 4z m68 -99 c0 -16
-35 -29 -50 -20 -14 9 -13 32 3 38 20 6 47 -4 47 -18z"/>
<path d="M1536 179 c-21 -16 -26 -29 -26 -64 0 -35 5 -48 26 -64 34 -27 68
-27 95 0 29 29 9 51 -21 24 -17 -15 -24 -16 -45 -7 -14 6 -25 18 -25 27 0 12
12 15 55 15 49 0 55 2 55 20 0 26 -43 70 -68 70 -11 0 -31 -9 -46 -21z m72
-21 c21 -21 13 -28 -28 -28 -22 0 -40 4 -40 8 0 14 23 32 40 32 9 0 21 -5 28
-12z"/>
<path d="M1680 198 c-1 -2 -2 -38 -3 -81 -2 -67 0 -77 16 -77 14 0 17 9 17 50
0 44 3 52 25 62 14 6 25 19 25 30 0 22 -13 23 -33 3 -13 -13 -16 -13 -21 0 -4
12 -25 22 -26 13z"/>
<path d="M2036 179 c-21 -16 -26 -29 -26 -64 0 -35 5 -48 26 -64 15 -12 34
-21 44 -21 22 0 70 37 70 55 0 16 -25 14 -42 -3 -27 -27 -68 -6 -68 34 0 22
24 54 40 54 5 0 15 -7 24 -15 16 -17 46 -20 46 -6 0 14 -50 51 -70 51 -10 0
-29 -9 -44 -21z"/>
<path d="M2195 175 c-36 -35 -35 -96 1 -124 15 -12 36 -21 48 -21 27 0 66 27
66 46 0 18 -10 18 -39 -2 -18 -13 -28 -14 -47 -5 -13 6 -24 18 -24 26 0 13 11
15 55 12 52 -2 55 -1 55 21 0 29 -42 72 -70 72 -11 0 -32 -11 -45 -25z m75
-20 c18 -21 9 -27 -36 -23 -36 3 -37 4 -20 21 21 21 40 22 56 2z"/>
<path d="M1780 183 c0 -4 12 -38 26 -75 19 -50 31 -68 44 -68 23 0 22 0 54 83
24 64 24 67 6 67 -14 0 -23 -14 -36 -55 -10 -30 -21 -52 -24 -48 -4 5 -13 29
-20 56 -9 35 -17 47 -31 47 -11 0 -19 -3 -19 -7z"/>
<path d="M1950 115 c0 -60 3 -75 15 -75 12 0 15 15 15 75 0 60 -3 75 -15 75
-12 0 -15 -15 -15 -75z"/>
<path d="M960 125 c0 -11 12 -15 45 -15 33 0 45 4 45 15 0 11 -12 15 -45 15
-33 0 -45 -4 -45 -15z"/>
<path d="M1220 125 c0 -11 12 -15 50 -15 38 0 50 4 50 15 0 11 -12 15 -50 15
-38 0 -50 -4 -50 -15z"/>
</g>
</svg>
